<svg width="403" height="183" viewBox="0 0 403 183" fill="none" xmlns="http://www.w3.org/2000/svg">
<path d="M24.4665 44.7618V52.7319H37.0432V60.1407H24.4665V68.7844H38.6908V76.4739H15.0752V37.0723H38.6908V44.7618H24.4665Z" fill="white"/>
<path d="M42.9205 60.7581C42.9205 57.5402 43.5063 54.7151 44.6779 52.2829C45.8862 49.8507 47.5154 47.9797 49.5658 46.6701C51.6161 45.3605 53.9045 44.7056 56.4308 44.7056C58.591 44.7056 60.4766 45.1547 62.0875 46.0527C63.7351 46.9507 64.9983 48.1294 65.877 49.5887V45.1547H75.2683V76.4739H65.877V72.0398C64.9617 73.4991 63.6802 74.6778 62.0326 75.5759C60.4216 76.4739 58.5361 76.9229 56.3759 76.9229C53.8862 76.9229 51.6161 76.2681 49.5658 74.9585C47.5154 73.6114 45.8862 71.7218 44.6779 69.2896C43.5063 66.8199 42.9205 63.9761 42.9205 60.7581ZM65.877 60.8143C65.877 58.4195 65.218 56.5299 63.8999 55.1454C62.6184 53.7609 61.0441 53.0687 59.1768 53.0687C57.3095 53.0687 55.7168 53.7609 54.3988 55.1454C53.1173 56.4924 52.4766 58.3634 52.4766 60.7581C52.4766 63.1529 53.1173 65.0613 54.3988 66.4832C55.7168 67.8677 57.3095 68.5599 59.1768 68.5599C61.0441 68.5599 62.6184 67.8677 63.8999 66.4832C65.218 65.0987 65.877 63.2091 65.877 60.8143Z" fill="white"/>
<path d="M94.5294 76.9229C91.8566 76.9229 89.4767 76.4552 87.3898 75.5197C85.3028 74.5843 83.6552 73.312 82.447 71.703C81.2387 70.0566 80.5614 68.2231 80.4149 66.2025H89.6964C89.8063 67.2877 90.3005 68.167 91.1793 68.8405C92.058 69.5141 93.1381 69.8508 94.4195 69.8508C95.5912 69.8508 96.4882 69.6263 97.1106 69.1773C97.7697 68.6909 98.0992 68.0735 98.0992 67.3251C98.0992 66.427 97.6415 65.7722 96.7262 65.3606C95.8108 64.9116 94.328 64.4252 92.2777 63.9013C90.0809 63.3774 88.2502 62.8349 86.7857 62.2736C85.3211 61.6749 84.058 60.7581 82.9962 59.5233C81.9344 58.2511 81.4035 56.5486 81.4035 54.4157C81.4035 52.6196 81.8795 50.9919 82.8314 49.5326C83.82 48.0359 85.2479 46.8572 87.1152 45.9966C89.0191 45.1359 91.2708 44.7056 93.8703 44.7056C97.7147 44.7056 100.735 45.6785 102.932 47.6243C105.166 49.57 106.447 52.1519 106.777 55.3699H98.0992C97.9527 54.2848 97.4767 53.4241 96.6712 52.788C95.9024 52.1519 94.8772 51.8338 93.5957 51.8338C92.4973 51.8338 91.6552 52.0584 91.0694 52.5074C90.4836 52.919 90.1907 53.499 90.1907 54.2473C90.1907 55.1454 90.6484 55.8189 91.5637 56.2679C92.5156 56.717 93.9802 57.166 95.9573 57.615C98.2273 58.2137 100.076 58.8124 101.504 59.4111C102.932 59.9724 104.177 60.9078 105.239 62.2175C106.337 63.4897 106.905 65.2109 106.941 67.3812C106.941 69.2147 106.429 70.8611 105.404 72.3205C104.415 73.7424 102.969 74.8649 101.065 75.6881C99.1976 76.5113 97.0191 76.9229 94.5294 76.9229Z" fill="white"/>
<path d="M143.991 45.1547L124.769 91.3477H114.664L121.694 75.4075L109.227 45.1547H119.717L126.801 64.7432L133.831 45.1547H143.991Z" fill="white"/>
<path d="M71.6741 140.908C71.6741 137.017 72.4979 133.556 74.1455 130.525C75.7931 127.457 78.0814 125.08 81.0105 123.397C83.9762 121.675 87.3263 120.815 91.0608 120.815C95.6375 120.815 99.5551 122.05 102.814 124.519C106.072 126.989 108.251 130.356 109.349 134.622H99.0242C98.2554 132.976 97.157 131.722 95.729 130.862C94.3377 130.001 92.745 129.571 90.951 129.571C88.0585 129.571 85.7153 130.6 83.9212 132.658C82.1272 134.716 81.2302 137.466 81.2302 140.908C81.2302 144.351 82.1272 147.101 83.9212 149.159C85.7153 151.217 88.0585 152.246 90.951 152.246C92.745 152.246 94.3377 151.816 95.729 150.955C97.157 150.095 98.2554 148.841 99.0242 147.195H109.349C108.251 151.46 106.072 154.828 102.814 157.298C99.5551 159.73 95.6375 160.946 91.0608 160.946C87.3263 160.946 83.9762 160.104 81.0105 158.42C78.0814 156.699 75.7931 154.323 74.1455 151.292C72.4979 148.261 71.6741 144.8 71.6741 140.908Z" fill="white"/>
<path d="M129.05 161.114C126.048 161.114 123.338 160.46 120.922 159.15C118.542 157.84 116.656 155.969 115.265 153.537C113.91 151.105 113.233 148.261 113.233 145.006C113.233 141.788 113.929 138.963 115.32 136.531C116.711 134.061 118.615 132.171 121.032 130.862C123.448 129.552 126.158 128.897 129.16 128.897C132.162 128.897 134.872 129.552 137.288 130.862C139.704 132.171 141.608 134.061 143 136.531C144.391 138.963 145.087 141.788 145.087 145.006C145.087 148.224 144.373 151.068 142.945 153.537C141.553 155.969 139.631 157.84 137.178 159.15C134.762 160.46 132.052 161.114 129.05 161.114ZM129.05 152.808C130.844 152.808 132.364 152.134 133.608 150.787C134.89 149.44 135.531 147.513 135.531 145.006C135.531 142.499 134.908 140.572 133.663 139.225C132.455 137.878 130.954 137.204 129.16 137.204C127.329 137.204 125.81 137.878 124.601 139.225C123.393 140.534 122.789 142.461 122.789 145.006C122.789 147.513 123.375 149.44 124.547 150.787C125.755 152.134 127.256 152.808 129.05 152.808Z" fill="white"/>
<path d="M164.019 161.114C161.016 161.114 158.307 160.46 155.89 159.15C153.511 157.84 151.625 155.969 150.234 153.537C148.879 151.105 148.202 148.261 148.202 145.006C148.202 141.788 148.897 138.963 150.289 136.531C151.68 134.061 153.584 132.171 156 130.862C158.417 129.552 161.126 128.897 164.128 128.897C167.131 128.897 169.84 129.552 172.257 130.862C174.673 132.171 176.577 134.061 177.968 136.531C179.36 138.963 180.055 141.788 180.055 145.006C180.055 148.224 179.341 151.068 177.913 153.537C176.522 155.969 174.6 157.84 172.147 159.15C169.73 160.46 167.021 161.114 164.019 161.114ZM164.019 152.808C165.813 152.808 167.332 152.134 168.577 150.787C169.858 149.44 170.499 147.513 170.499 145.006C170.499 142.499 169.877 140.572 168.632 139.225C167.424 137.878 165.922 137.204 164.128 137.204C162.298 137.204 160.778 137.878 159.57 139.225C158.362 140.534 157.758 142.461 157.758 145.006C157.758 147.513 158.344 149.44 159.515 150.787C160.723 152.134 162.225 152.808 164.019 152.808Z" fill="white"/>
<path d="M203.765 160.665L194.429 147.532V160.665H185.037V119.131H194.429V142.087L203.71 129.346H215.298L202.557 145.062L215.408 160.665H203.765Z" fill="white"/>
<path d="M223.71 126.091C222.063 126.091 220.708 125.604 219.646 124.631C218.621 123.621 218.108 122.386 218.108 120.927C218.108 119.43 218.621 118.195 219.646 117.223C220.708 116.212 222.063 115.707 223.71 115.707C225.321 115.707 226.639 116.212 227.664 117.223C228.726 118.195 229.257 119.43 229.257 120.927C229.257 122.386 228.726 123.621 227.664 124.631C226.639 125.604 225.321 126.091 223.71 126.091ZM228.378 129.346V160.665H218.987V129.346H228.378Z" fill="white"/>
<path d="M253.857 129.009C257.445 129.009 260.301 130.207 262.424 132.602C264.585 134.959 265.665 138.214 265.665 142.368V160.665H256.328V143.659C256.328 141.563 255.797 139.936 254.736 138.776C253.674 137.616 252.246 137.036 250.452 137.036C248.658 137.036 247.23 137.616 246.168 138.776C245.106 139.936 244.575 141.563 244.575 143.659V160.665H235.184V129.346H244.575V133.5C245.527 132.115 246.809 131.03 248.42 130.244C250.031 129.421 251.843 129.009 253.857 129.009Z" fill="white"/>
<path d="M283.834 128.897C285.994 128.897 287.88 129.346 289.491 130.244C291.138 131.142 292.401 132.321 293.28 133.78V129.346H302.671V160.609C302.671 163.491 302.104 166.091 300.969 168.411C299.87 170.768 298.168 172.639 295.861 174.024C293.591 175.408 290.754 176.101 287.349 176.101C282.809 176.101 279.129 174.997 276.31 172.789C273.491 170.619 271.88 167.663 271.477 163.921H280.758C281.051 165.118 281.747 166.054 282.845 166.727C283.944 167.438 285.298 167.794 286.909 167.794C288.85 167.794 290.388 167.214 291.523 166.054C292.694 164.931 293.28 163.116 293.28 160.609V156.175C292.365 157.635 291.102 158.832 289.491 159.767C287.88 160.665 285.994 161.114 283.834 161.114C281.307 161.114 279.019 160.46 276.969 159.15C274.918 157.803 273.289 155.913 272.081 153.481C270.909 151.011 270.323 148.168 270.323 144.95C270.323 141.732 270.909 138.907 272.081 136.474C273.289 134.042 274.918 132.171 276.969 130.862C279.019 129.552 281.307 128.897 283.834 128.897ZM293.28 145.006C293.28 142.611 292.621 140.721 291.303 139.337C290.021 137.952 288.447 137.26 286.58 137.26C284.713 137.26 283.12 137.952 281.802 139.337C280.52 140.684 279.88 142.555 279.88 144.95C279.88 147.344 280.52 149.253 281.802 150.675C283.12 152.059 284.713 152.751 286.58 152.751C288.447 152.751 290.021 152.059 291.303 150.675C292.621 149.29 293.28 147.401 293.28 145.006Z" fill="white"/>
<path d="M5.89235 169.076C3.45985 169.041 1.72304 167.465 2.30742 166.125C2.71824 164.908 3.51196 163.777 4.69511 162.722C5.88134 161.674 7.31182 160.837 8.99307 160.203C12.8652 158.849 16.6661 157.379 20.3929 155.788C21.1062 155.486 21.841 155.226 22.6101 155.011C26.9322 153.72 31.2762 152.451 35.5651 151.052C39.1415 149.913 42.7793 149.09 46.4912 148.586C46.7869 148.569 47.0596 148.595 47.3159 148.654C47.5753 148.72 47.7864 148.823 47.9588 148.961C48.1217 149.101 48.2397 149.265 48.2906 149.451C48.3446 149.644 48.3414 149.835 48.2619 150.031C48.0372 150.558 47.7082 151.058 47.2682 151.54C46.0285 152.747 44.4724 153.691 42.5807 154.377C38.2362 156.062 33.8759 157.738 29.5407 159.441C24.6619 161.359 19.7612 163.256 14.935 165.254C12.6195 166.213 10.4747 167.415 8.19645 168.424C7.45166 168.708 6.6826 168.924 5.89235 169.076Z" fill="white"/>
<path d="M48.0772 136.787C48.8533 136.861 49.2711 136.838 49.5597 136.953C49.88 137.063 50.0771 137.238 50.1732 137.476C50.1997 137.733 50.0837 137.977 49.8347 138.206C48.9703 138.884 47.9433 139.326 46.7284 139.527C45.1624 139.789 43.7082 140.278 42.3659 140.993C41.1847 141.63 39.8947 142.026 38.5119 142.189C36.3793 142.492 34.2918 142.961 32.2462 143.59C29.9948 144.216 27.6469 144.518 25.3826 145.099C18.9154 146.755 12.3434 147.635 5.83666 148.948C5.40025 149.061 4.96356 149.111 4.53295 149.11C4.10235 149.109 3.69681 149.051 3.32272 148.946C2.95492 148.832 2.63124 148.674 2.37384 148.471C2.11645 148.269 1.91905 148.031 1.80699 147.763C1.52318 147.325 1.33419 146.854 1.25591 146.357C1.15778 145.678 1.47468 145.054 2.22238 144.474C3.91004 143.125 5.93522 142.188 8.3042 141.654C10.4012 141.182 12.4756 140.626 14.5599 140.151C15.708 139.89 16.8532 139.686 18.0082 139.541C20.9068 139.189 23.7896 138.85 26.6759 138.58C28.5906 138.396 30.5056 138.296 32.4145 138.226C36.0301 138.194 39.6759 137.842 43.336 137.164C44.9338 136.918 46.5068 136.792 48.0772 136.787Z" fill="white"/>
<path d="M41.7923 98.3368C42.3978 98.3909 42.9595 98.5064 43.4917 98.6905C44.786 99.2492 45.9483 99.9471 46.9787 100.784C48.2991 102.042 49.5421 103.358 51.006 104.5C51.3294 104.752 51.5447 105.064 51.6689 105.447C52.488 107.338 53.5675 109.072 54.9323 110.636C56.012 112.22 56.9091 113.926 57.8449 115.603C58.5294 116.831 59.07 118.153 59.7849 119.356C60.5717 120.837 61.0001 122.467 61.0563 124.261C61.0331 124.537 60.9512 124.821 60.8079 125.11C60.6562 125.402 60.431 125.652 60.1269 125.87C59.8199 126.082 59.4976 126.22 59.1543 126.271C57.5705 126.132 56.1892 125.718 54.9907 125.033C54.7669 124.876 54.6233 124.669 54.5435 124.419C54.4303 124.188 54.3783 123.931 54.3874 123.648C54.599 120.506 52.6786 118.538 50.7145 116.63C46.6095 112.626 42.4521 108.666 38.3251 104.682C38.0515 104.402 37.8167 104.094 37.6152 103.768C37.4129 103.397 37.3191 102.99 37.3363 102.53C37.3564 102.076 37.4884 101.614 37.7322 101.143C37.9759 100.673 38.3127 100.242 38.7368 99.8389C39.1608 99.4358 39.6392 99.1008 40.1803 98.8294C40.7113 98.6236 41.2514 98.4579 41.7923 98.3368Z" fill="white"/>
<path d="M48.5825 129.099C46.8181 129.446 45.1483 129.48 43.585 129.202C41.092 128.885 38.5384 128.674 35.9452 128.566C33.5229 128.444 31.2283 128.122 29.0372 127.597C25.562 126.831 21.937 126.304 18.3484 125.724C17.1978 125.557 16.0967 125.305 15.075 124.959C14.3555 124.689 13.7804 124.304 13.3441 123.813C12.8936 123.392 12.6967 122.871 12.7511 122.264C12.811 121.647 13.1048 121.066 13.6435 120.502C14.0797 119.992 14.6505 119.576 15.356 119.256C16.0615 118.936 16.7782 118.767 17.5062 118.749C18.4149 118.677 19.283 118.688 20.1224 118.782C25.6524 119.446 30.917 120.494 35.9339 121.916C37.4278 122.36 39.0099 122.707 40.5941 123.039C44.5725 123.917 48.0948 125.273 51.1731 127.107C51.4823 127.364 51.7065 127.667 51.8547 128.012C52.0282 128.267 51.4202 128.94 50.979 128.97C50.0879 129.034 49.2012 129.067 48.5825 129.099Z" fill="white"/>
<path d="M178.086 74.988C179.041 75.4383 180.054 75.8077 181.092 76.1217C183.18 76.7426 185.392 77.1595 187.655 77.4469C195 78.3876 202.314 78.1264 209.393 77.5316C211.373 77.3681 213.34 77.1661 215.299 76.9341C219.605 76.4245 223.585 75.8012 226.99 75.1994C236.774 73.4576 246.344 71.1635 255.586 68.3187C265.575 65.2428 275.413 61.542 284.016 56.4834C286.883 54.8003 289.64 52.9536 291.991 50.7731C293.209 49.6442 294.338 48.4201 295.158 47.0288C295.772 45.9913 296.363 44.8171 296.329 43.5563C296.311 42.8897 296.138 42.0735 295.802 41.4194C295.746 41.3308 295.694 41.2506 295.647 41.1922C295.557 41.0743 295.496 41.0187 295.459 41.0265C295.427 41.0333 295.421 41.1076 295.444 41.235C295.453 41.2971 295.469 41.3758 295.49 41.467C295.772 42.7392 295.612 43.9634 295.1 45.057C294.597 46.1259 293.88 47.0619 293.025 47.9135C292.565 48.3756 292.085 48.8239 291.587 49.2576C289.004 51.5373 286.002 53.445 282.869 55.1753C273.511 60.3481 262.939 64.1448 252.184 67.278C249.128 68.1663 246.039 68.9933 242.922 69.7713C240.097 70.4694 237.248 71.1269 234.387 71.7461C232.391 72.1729 229.592 72.7515 226.223 73.3548C222.856 73.9623 218.923 74.5893 214.675 75.1141C207.851 75.956 200.895 76.5017 193.81 76.3361C191.757 76.287 189.688 76.1684 187.616 75.9454C185.432 75.7096 183.321 75.3581 181.372 74.8309C180.398 74.5673 179.466 74.2537 178.607 73.879C176.797 73.0943 175.037 71.6605 174.46 69.9992C173.762 67.9623 174.788 66.1078 175.713 64.4843C175.939 64.0854 176.035 63.8552 175.971 63.8141C175.904 63.7688 175.689 63.9148 175.345 64.243C175.241 64.3471 175.122 64.4726 174.999 64.6125C174.919 64.7024 174.84 64.7923 174.756 64.8966C173.869 66.0102 173.151 67.4255 173.137 68.9109C173.134 69.3767 173.198 69.8558 173.35 70.3299C173.958 72.2355 176.04 74.0298 178.086 74.988ZM181.156 79.8209C184.38 83.2756 188.749 85.8494 193.33 87.5758C194.57 88.0432 195.839 88.4634 197.107 88.8382C198.415 89.2228 199.733 89.5642 201.056 89.8818C212.108 92.5149 223.723 90.901 233.992 89.1707C234.068 89.1592 234.139 89.1488 234.212 89.1332C236.982 88.6658 239.718 88.1142 242.422 87.5055C244.805 86.9649 247.156 86.367 249.469 85.7088C250.148 85.5151 250.823 85.313 251.493 85.112C257.646 83.2398 263.633 81.0927 269.518 78.7894C272.332 77.6923 274.893 76.5848 277.039 75.5742C279.188 74.5678 280.909 73.6427 282.093 72.9679C283.261 72.2784 283.89 71.8443 283.822 71.7629C283.752 71.6772 283.009 71.9714 281.743 72.5357C280.003 73.3097 278.248 74.0733 276.48 74.8078C271.095 77.0555 265.526 79.0458 259.916 80.9488C254.267 82.8739 248.437 84.6046 242.511 86.0273C238.564 86.9764 234.595 87.7476 230.484 88.3166C226.418 88.8758 222.394 89.449 218.245 89.7613C214.108 90.0757 209.783 89.9829 205.503 89.4928C200.815 88.9521 195.866 87.6776 191.413 85.8104C190.179 85.2914 188.967 84.7086 187.801 84.0614C185.391 82.7287 183.237 81.0863 181.177 79.3604C180.858 79.0949 180.672 78.9655 180.629 78.9928C180.512 79.0678 180.768 79.4058 181.156 79.8209ZM202.013 68.0554C202.186 68.224 204.139 66.9351 207.271 65.2461C210.381 63.53 214.697 61.4399 219.225 59.6108C225.951 56.8968 233.007 54.7243 240.301 52.9711C241.418 52.6983 243.003 52.3447 244.895 51.958C246.788 51.5712 249.003 51.1617 251.396 50.7968C253.782 50.4288 256.352 50.1086 258.944 49.8703C263.664 49.4507 268.507 49.2744 273.395 49.6359C275.462 49.7824 277.527 50.1117 279.598 50.3212C279.916 50.3542 280.086 50.3502 280.092 50.3079C280.1 50.2605 279.937 50.1809 279.633 50.0675C277.619 49.3442 275.408 49.0503 273.348 48.7975C265.697 47.8622 258.114 48.4495 250.901 49.5012C248.474 49.8553 246.231 50.2613 244.314 50.6488C242.396 51.0363 240.8 51.397 239.667 51.6685C234.734 52.8354 229.888 54.212 225.222 55.8606C223.011 56.6431 220.69 57.5264 218.429 58.4838C212.987 60.7846 207.494 63.4019 203.132 66.9428C202.351 67.5825 201.938 67.9801 202.013 68.0554ZM291.272 37.4974C291.227 37.4658 291.17 37.4279 291.101 37.3878C291.03 37.3435 290.948 37.297 290.85 37.2492C290.456 37.0406 289.877 36.7801 289.112 36.4996C288.517 36.2832 287.815 36.0624 287.026 35.8508C286.796 35.79 286.561 35.7302 286.316 35.6681C285.23 35.4052 283.996 35.1692 282.65 34.9659C272.225 33.3906 261.733 34.3381 251.879 35.6296C249.355 35.9628 246.855 36.3459 244.367 36.7674C236.391 38.113 228.558 39.8479 220.933 41.9356C218.8 42.5238 216.684 43.1402 214.584 43.7898C209.802 45.2623 205.078 46.8822 200.549 48.7526C199.853 49.0412 199.163 49.3195 198.495 49.6022C196.132 50.6131 193.761 51.6621 191.495 52.8302C190.309 53.4461 189.145 54.0892 188.036 54.7846C186.886 55.5022 186.263 55.9488 186.331 56.0302C186.403 56.1107 187.147 55.8073 188.393 55.2107C191.889 53.545 195.5 51.9965 199.157 50.5477C199.828 50.2826 200.521 50.0219 201.226 49.7541C206.932 47.5435 212.872 45.6572 218.891 43.964C220.643 43.4701 222.408 42.9918 224.187 42.5333C229.622 41.1188 235.154 39.8935 240.756 38.8314C242.136 38.5713 243.516 38.3204 244.901 38.0821C252.279 36.8083 259.821 35.8693 267.501 35.494C272.474 35.2491 277.557 35.2227 282.659 35.7987C283.976 35.9489 285.179 36.1276 286.245 36.3263C287.308 36.53 288.236 36.7486 288.992 36.9536C290.508 37.3626 291.358 37.7165 291.397 37.6261C291.408 37.6056 291.362 37.5606 291.272 37.4974ZM300.62 36.8606C300.925 36.7002 301.223 36.5367 301.528 36.3764C310.268 31.7586 318.644 26.7115 327.475 22.193C330.038 20.88 332.625 19.5982 335.245 18.3551C338.213 16.9471 341.225 15.5892 344.287 14.3073C347.419 13.0016 350.599 11.7584 353.84 10.6122C356.894 9.5327 359.995 8.53442 363.155 7.64227C365.899 6.86562 368.696 6.18263 371.541 5.61701C372.675 5.3909 373.327 5.2712 373.305 5.18001C373.298 5.1541 373.254 5.13597 373.161 5.11927C373.072 5.10159 372.941 5.09269 372.777 5.08644C372.442 5.07075 371.97 5.08844 371.368 5.12924C370.171 5.21817 368.498 5.44455 366.531 5.82418C364.572 6.19771 362.321 6.72864 359.956 7.38413C356.686 8.29036 353.498 9.32988 350.376 10.4694C345.279 12.3232 340.348 14.4384 335.516 16.6695C327.647 20.3048 319.984 24.2205 312.683 28.5521C308.435 31.0656 304.158 33.5942 300.238 36.4486C299.384 37.0719 298.931 37.4597 299.003 37.5401C299.078 37.6155 299.66 37.3647 300.62 36.8606ZM170.55 69.0842C170.757 59.2067 190.401 47.438 226.111 38.6325C257.242 30.9508 286.234 30.5132 296.381 36.9547L296.377 36.9464C320.359 19.5983 366.251 -0.926285 373.942 1.63348C381.638 4.19228 382.414 12.7167 382.414 12.7167C382.414 12.7167 382.968 14.8436 376.166 16.8666C369.365 18.8895 312.111 30.5065 300.474 43.4C301.382 48.0015 302.839 59.6752 296.254 66.9932C286.389 77.9519 256.956 86.1544 252.545 87.4664L252.548 87.4747C248.019 88.5744 218.356 96.3422 200.788 92.7937C185.931 89.7935 173.749 75.5819 173.749 75.5819C171.635 73.1146 170.492 71.6051 170.55 69.0842Z" fill="#EA1D2C"/>
<path d="M55.2679 158.461C55.0623 159.66 54.3609 160.762 53.167 161.772C50.2039 164.417 47.5498 167.178 45.2147 170.071C42.3076 173.54 38.9637 176.825 35.1952 179.928C34.5421 180.459 33.8701 180.976 33.1603 181.466C32.8711 181.664 32.5463 181.82 32.1859 181.935C31.8345 182.046 31.4653 182.108 31.0995 182.119C30.7337 182.131 30.3924 182.091 30.0789 182.006C29.7621 181.914 29.4976 181.781 29.2732 181.604C28.7887 181.321 28.4043 180.983 28.1166 180.587C27.829 180.191 27.6515 179.758 27.584 179.288C27.5166 178.819 27.5637 178.339 27.7287 177.855C27.8903 177.364 28.162 176.894 28.5438 176.442C29.363 175.336 30.3779 174.32 31.6062 173.388C33.7802 171.732 35.7118 169.962 37.4168 168.087C41.3596 163.992 46.188 160.491 51.902 157.583C52.3892 157.349 52.8897 157.137 53.4091 156.939C53.6271 156.881 53.8528 156.854 54.0741 156.858C54.2987 156.867 54.5065 156.904 54.6799 156.975C54.8566 157.052 55.0044 157.154 55.1022 157.283C55.2088 157.409 55.2587 157.55 55.2641 157.708L55.2679 158.461Z" fill="white"/>
</svg>
